<svg width="940" height="788" viewBox="0 0 940 788" fill="none" xmlns="http://www.w3.org/2000/svg">
<path d="M710.927 472.792C700.625 487.943 690.401 503.151 679.969 518.224C675.948 524.042 668.781 526.458 662.599 524.682C655.661 522.687 650.416 516.948 650.719 509.917C650.89 505.943 652.552 501.578 654.797 498.224C673.156 470.766 691.906 443.583 710.338 416.172C724.698 394.818 722.13 368.484 704.271 350.182C682.317 327.687 644.484 330.641 626.26 356.562C613.151 375.213 600.562 394.234 587.719 413.068C583.765 418.87 578.255 421.495 571.281 420.635C565.026 419.859 559.953 416.401 558.849 410.422C557.953 405.615 558.109 399.229 560.62 395.385C574.515 374.198 588.312 352.844 603.958 332.953C626.281 304.573 665.771 295.198 699.146 308.453C748.781 328.167 767.552 388.484 737.864 433.141C729.021 446.437 719.916 459.573 710.927 472.792Z" fill="url(#paint0_linear_17_47)"/>
<path d="M659.911 425.312C651.536 437.63 644.281 450.927 634.568 462.062C610.812 489.297 566.234 496.411 534.432 479.354C500.505 461.156 482.927 421.969 491.74 385.469C495.714 369.016 504.839 355.521 514.568 342.333C519.755 335.312 529.51 334.312 536.354 339.042C543.198 343.771 545.505 353.005 541.245 360.604C538.328 365.792 534.698 370.568 531.375 375.531C515.375 399.443 520.339 430.406 543.781 446.771C567.87 463.583 598.365 457.344 614.375 435.792C627.323 418.359 639.068 400.016 651.359 382.094C652.802 379.99 654.24 377.844 655.937 375.953C661.724 369.5 671.339 368.469 677.807 373.484C684.385 378.583 686.286 388.125 681.651 395.24C674.901 405.594 667.797 415.724 660.849 425.943C660.542 425.729 660.224 425.516 659.911 425.312Z" fill="url(#paint1_linear_17_47)"/>
<path d="M491.031 366.172C497.235 355.568 503.042 345.646 508.828 335.719C513.833 327.151 518.792 318.542 523.833 310C529.979 299.578 541.573 296.198 551.62 301.818C561.401 307.286 564.672 319.437 558.688 329.906C544.391 354.901 529.86 379.766 515.422 404.682C503.448 425.354 491.469 446.036 479.479 466.708C468.349 485.896 444.792 490.448 428.208 476.406C425.276 473.922 422.776 470.698 420.745 467.406C392.656 421.943 364.672 376.411 336.682 330.891C330.078 320.146 333.276 307.104 343.844 301.333C353.453 296.083 365.011 299.146 371.089 308.891C381.339 325.318 391.375 341.875 401.505 358.38C416.891 383.448 432.287 408.521 447.693 433.573C448.245 434.479 448.922 435.318 449.88 436.661C454.042 429.573 457.422 422.448 462.068 416.271C467.443 409.13 466.662 403.552 461.995 396.156C448.406 374.604 435.766 352.443 422.755 330.531C415.417 318.177 420.922 303.26 434.11 299.766C443.485 297.281 452.042 300.995 457.453 310.062C467.703 327.208 477.891 344.385 488.11 361.547C488.906 362.88 489.776 364.187 491.031 366.172ZM257.859 301.391C247.25 307.073 244.188 319.786 250.818 330.562C280.484 378.807 310.219 427.01 339.979 475.193C346.099 485.115 358.458 488.057 368.219 482.109C377.682 476.344 380.557 463.693 374.406 453.682C344.771 405.422 315.063 357.208 285.354 308.99C281.323 302.448 275.505 298.906 267.511 298.302C264.266 299.297 260.781 299.823 257.859 301.391Z" fill="url(#paint2_linear_17_47)"/>
<path fill-rule="evenodd" clip-rule="evenodd" d="M266.99 454.552C258.787 456.49 250.313 456.729 242.104 455.365C226.151 452.62 211.177 443.984 201.068 429.833C196.276 423.13 193 415.776 191.151 408.203L236.052 408.177C236.495 402.677 236.688 397.052 236.682 391.422C236.682 385.797 236.485 380.172 236.037 374.672L192.094 374.698C195.995 361.917 203.995 350.261 215.813 341.818C227.776 333.266 241.886 329.474 255.531 330.094L255.313 329.781L268.948 296.302C268.771 296.276 268.698 296.172 268.594 296.245C243.797 292.12 217.422 297.443 195.365 313.208C173.307 328.969 159.62 352.266 155.49 377.057C151.365 401.854 156.688 428.224 172.453 450.281C188.214 472.333 211.443 485.917 236.24 490.047C248.547 492.094 261.068 491.792 273.438 489.083L266.99 454.552ZM100.74 397.109C100.74 354.906 117.75 316.677 145.5 289.052C164.042 270.385 187.578 256.573 213.792 249.417V286.24C197.297 292.25 182.458 301.714 170.313 313.859C149.078 335.219 135.906 364.625 135.906 397.109C135.906 429.583 149.078 458.995 170.313 480.219C180.667 490.578 192.948 499.016 206.63 505.026L191.667 536.87C174.401 529.198 158.672 518.328 145.5 505.156C117.75 477.537 100.74 439.302 100.74 397.109Z" fill="url(#paint3_linear_17_47)"/>
<path d="M790.703 365.187V393.448L872.474 311.677L790.703 365.187Z" fill="#0F0F0F"/>
<path d="M818.958 393.448L872.474 311.677L790.703 393.448H818.958Z" fill="#0F0F0F"/>
<path d="M790.703 367.927V393.448L864.563 319.583L790.703 367.927Z" fill="url(#paint4_linear_17_47)"/>
<path d="M818.969 393.453L790.703 393.448L872.479 475.224L818.969 393.453Z" fill="#0F0F0F"/>
<path d="M790.708 421.714L872.479 475.224L790.703 393.448L790.708 421.714Z" fill="#0F0F0F"/>
<path d="M816.224 393.453H790.703L864.557 467.318L816.224 393.453Z" fill="url(#paint5_linear_17_47)"/>
<path d="M790.703 421.714V393.453L708.932 475.224L790.703 421.714Z" fill="#0F0F0F"/>
<path d="M762.432 393.453L708.932 475.224L790.703 393.453H762.432Z" fill="#0F0F0F"/>
<path d="M790.703 418.974V393.453L716.838 467.318L790.703 418.974Z" fill="url(#paint6_linear_17_47)"/>
<path d="M762.432 393.448L790.703 393.453L708.927 311.677L762.432 393.448Z" fill="#0F0F0F"/>
<path d="M790.698 365.187L708.927 311.677L790.703 393.453L790.698 365.187Z" fill="#0F0F0F"/>
<path d="M765.172 393.453H790.703L716.838 319.589L765.172 393.453Z" fill="url(#paint7_linear_17_47)"/>
<path d="M764.995 367.74L790.703 393.453V244.703L764.995 367.74Z" fill="#0F0F0F"/>
<path d="M816.401 367.74L790.703 244.703V393.448L816.401 367.74Z" fill="#0F0F0F"/>
<path d="M767.484 370.234L790.703 393.448V259.089L767.484 370.234Z" fill="url(#paint8_linear_17_47)"/>
<path d="M816.406 367.74L790.703 393.448H939.443L816.406 367.74Z" fill="#0F0F0F"/>
<path d="M816.406 419.151L939.443 393.448H790.703L816.406 419.151Z" fill="#0F0F0F"/>
<path d="M813.917 370.234L790.703 393.448H925.063L813.917 370.234Z" fill="url(#paint9_linear_17_47)"/>
<path d="M816.406 419.162L790.703 393.448V542.198L816.406 419.162Z" fill="#0F0F0F"/>
<path d="M764.995 419.161L790.703 542.198V393.453L764.995 419.161Z" fill="#0F0F0F"/>
<path d="M813.917 416.661L790.703 393.453V527.813L813.917 416.661Z" fill="url(#paint10_linear_17_47)"/>
<path d="M764.99 419.161L790.703 393.453H641.953L764.99 419.161Z" fill="#0F0F0F"/>
<path d="M764.99 367.75L641.953 393.453H790.703L764.99 367.75Z" fill="#0F0F0F"/>
<path d="M767.484 416.661L790.703 393.453H656.338L767.484 416.661Z" fill="url(#paint11_linear_17_47)"/>
<defs>
<linearGradient id="paint0_linear_17_47" x1="655.205" y1="302.536" x2="655.205" y2="525.254" gradientUnits="userSpaceOnUse">
<stop stop-color="#5806A7"/>
<stop offset="0.588542" stop-color="#7E00E2"/>
<stop offset="1" stop-color="#56009A"/>
</linearGradient>
<linearGradient id="paint1_linear_17_47" x1="586.845" y1="336.134" x2="586.845" y2="488.568" gradientUnits="userSpaceOnUse">
<stop stop-color="#5806A7"/>
<stop offset="0.588542" stop-color="#7E00E2"/>
<stop offset="1" stop-color="#56009A"/>
</linearGradient>
<linearGradient id="paint2_linear_17_47" x1="404.508" y1="298.302" x2="404.508" y2="485.169" gradientUnits="userSpaceOnUse">
<stop stop-color="#5806A7"/>
<stop offset="0.588542" stop-color="#7E00E2"/>
<stop offset="1" stop-color="#56009A"/>
</linearGradient>
<linearGradient id="paint3_linear_17_47" x1="187.089" y1="249.417" x2="187.089" y2="536.87" gradientUnits="userSpaceOnUse">
<stop stop-color="#5806A7"/>
<stop offset="0.588542" stop-color="#7E00E2"/>
<stop offset="1" stop-color="#56009A"/>
</linearGradient>
<linearGradient id="paint4_linear_17_47" x1="827.633" y1="319.583" x2="827.633" y2="393.448" gradientUnits="userSpaceOnUse">
<stop stop-color="#5806A7"/>
<stop offset="0.588542" stop-color="#7E00E2"/>
<stop offset="1" stop-color="#56009A"/>
</linearGradient>
<linearGradient id="paint5_linear_17_47" x1="827.63" y1="393.453" x2="827.63" y2="467.318" gradientUnits="userSpaceOnUse">
<stop stop-color="#5806A7"/>
<stop offset="0.588542" stop-color="#7E00E2"/>
<stop offset="1" stop-color="#56009A"/>
</linearGradient>
<linearGradient id="paint6_linear_17_47" x1="753.771" y1="393.453" x2="753.771" y2="467.318" gradientUnits="userSpaceOnUse">
<stop stop-color="#5806A7"/>
<stop offset="0.588542" stop-color="#7E00E2"/>
<stop offset="1" stop-color="#56009A"/>
</linearGradient>
<linearGradient id="paint7_linear_17_47" x1="753.771" y1="319.589" x2="753.771" y2="393.453" gradientUnits="userSpaceOnUse">
<stop stop-color="#5806A7"/>
<stop offset="0.588542" stop-color="#7E00E2"/>
<stop offset="1" stop-color="#56009A"/>
</linearGradient>
<linearGradient id="paint8_linear_17_47" x1="779.094" y1="259.089" x2="779.094" y2="393.448" gradientUnits="userSpaceOnUse">
<stop stop-color="#5806A7"/>
<stop offset="0.588542" stop-color="#7E00E2"/>
<stop offset="1" stop-color="#56009A"/>
</linearGradient>
<linearGradient id="paint9_linear_17_47" x1="857.883" y1="370.234" x2="857.883" y2="393.448" gradientUnits="userSpaceOnUse">
<stop stop-color="#5806A7"/>
<stop offset="0.588542" stop-color="#7E00E2"/>
<stop offset="1" stop-color="#56009A"/>
</linearGradient>
<linearGradient id="paint10_linear_17_47" x1="802.31" y1="393.453" x2="802.31" y2="527.812" gradientUnits="userSpaceOnUse">
<stop stop-color="#5806A7"/>
<stop offset="0.588542" stop-color="#7E00E2"/>
<stop offset="1" stop-color="#56009A"/>
</linearGradient>
<linearGradient id="paint11_linear_17_47" x1="723.521" y1="393.453" x2="723.521" y2="416.661" gradientUnits="userSpaceOnUse">
<stop stop-color="#5806A7"/>
<stop offset="0.588542" stop-color="#7E00E2"/>
<stop offset="1" stop-color="#56009A"/>
</linearGradient>
</defs>
</svg>
